<?xml version="1.0" encoding="UTF-8"?>
<svg width="150px" height="150px" viewBox="0 0 150 150" version="1.1" xmlns="http://www.w3.org/2000/svg" xmlns:xlink="http://www.w3.org/1999/xlink">
    <!-- Generator: Sketch 43.1 (39012) - http://www.bohemiancoding.com/sketch -->
    <title>LogoFlat</title>
    <desc>Created with Sketch.</desc>
    <defs>
        <path d="M12.9710489,99.3408198 C12.9710489,99.3408198 7.92611928,69.213529 8.70551535,42.3408198 C9.46217759,16.2519478 21.6212377,3.78852704 36.3758187,4.34081981 C51.1303996,4.89311258 60.3829648,14.0403364 60.5105911,32.4107203 C60.5105911,32.4107203 57.2649064,12.9180052 36.27021,12.3408198 C24.7222886,12.0233448 17.1827851,21.4311524 15.9926833,32.1938539 C15.5964093,35.7775624 15.4580473,39.4427506 19.5033595,40.664211 C26.7940334,42.8655909 40.5379822,41.9340195 40.5379822,41.9340195 C40.5379822,41.9340195 29.2959854,42.8908281 19.9963868,46.2995392 C15.301819,48.0203043 14.342824,52.5118723 14.2720175,53.5863543 C12.9710489,73.328434 12.9710489,99.3408198 12.9710489,99.3408198 Z" id="path-1"></path>
        <filter x="-3.9%" y="-1.1%" width="107.7%" height="104.2%" filterUnits="objectBoundingBox" id="filter-2">
            <feOffset dx="0" dy="1" in="SourceAlpha" result="shadowOffsetOuter1"></feOffset>
            <feGaussianBlur stdDeviation="0.5" in="shadowOffsetOuter1" result="shadowBlurOuter1"></feGaussianBlur>
            <feColorMatrix values="0 0 0 0 0   0 0 0 0 0   0 0 0 0 0  0 0 0 0.5 0" type="matrix" in="shadowBlurOuter1"></feColorMatrix>
        </filter>
        <path d="M57.6367648,74.145652 C57.3733008,81.4875708 56.7433592,86.34097 55.875639,94.5847711 C53.5481959,116.696713 48.3522268,124.584771 37.5905684,124.584771 C18.0412573,124.584771 13.7757981,103.584771 13.7757981,103.584771 C16.7756309,122.584771 24.301827,132.584771 37.4986224,132.584771 C50.6954177,132.584771 60.5256132,120.639818 61.5892309,94.5847711 C62.7730673,65.5847711 59.7732345,59.5847711 59.7732345,59.5847711 C59.7732345,59.5847711 59.5231047,58.7092679 59.1997644,58.1525337 C56.6108565,51.3880836 50.0579,46.5847711 42.3830697,46.5847711 C32.4419442,46.5847711 24.3830697,54.6436456 24.3830697,64.5847711 C24.3830697,74.5258966 32.4419442,82.5847711 42.3830697,82.5847711 C48.8113619,82.5847711 54.4526127,79.2150457 57.6367648,74.145652 Z" id="path-3"></path>
        <filter x="-4.2%" y="-1.2%" width="108.3%" height="104.7%" filterUnits="objectBoundingBox" id="filter-4">
            <feOffset dx="0" dy="1" in="SourceAlpha" result="shadowOffsetOuter1"></feOffset>
            <feGaussianBlur stdDeviation="0.5" in="shadowOffsetOuter1" result="shadowBlurOuter1"></feGaussianBlur>
            <feColorMatrix values="0 0 0 0 0   0 0 0 0 0   0 0 0 0 0  0 0 0 0.5 0" type="matrix" in="shadowBlurOuter1"></feColorMatrix>
        </filter>
    </defs>
    <g id="Illustrations" stroke="none" stroke-width="1" fill="none" fill-rule="evenodd">
        <g id="LogoFlat">
            <g id="Group" transform="translate(74.816697, 74.884172) rotate(-40.000000) translate(-74.816697, -74.884172) translate(40.316697, 7.384172)">
                <g id="Combined-Shape" transform="translate(34.567139, 51.832034) rotate(-10.000000) translate(-34.567139, -51.832034) ">
                    <use fill="black" fill-opacity="1" filter="url(#filter-2)" xlink:href="#path-1"></use>
                    <use fill="#00AA8D" fill-rule="evenodd" xlink:href="#path-1"></use>
                </g>
                <g id="Combined-Shape" transform="translate(37.820798, 89.584771) rotate(-5.000000) translate(-37.820798, -89.584771) ">
                    <use fill="black" fill-opacity="1" filter="url(#filter-4)" xlink:href="#path-3"></use>
                    <use fill="#00AA8D" fill-rule="evenodd" xlink:href="#path-3"></use>
                </g>
            </g>
        </g>
    </g>
</svg>